<?xml version="1.0" encoding="UTF-8"?>
<svg id="Layer_2" data-name="Layer 2" xmlns="http://www.w3.org/2000/svg" viewBox="0 0 16 16">
  <defs>
    <style>
      .cls-1 {
        fill: #fff;
      }

      .cls-2 {
        fill: #152851;
      }
    </style>
  </defs>
  <g id="Layer_1-2" data-name="Layer 1">
    <rect class="cls-1" x="0" y="0" width="16" height="16" rx="8" ry="8"/>
    <path class="cls-2" d="M7.19,12.05c-.04.08-.14.1-.22.06l-.12-.07c-.08-.04-.1-.14-.06-.22.04-.08.14-.1.22-.06l.12.07c.08.04.1.14.06.22ZM6.56,12.33c-.04-.08-.14-.1-.22-.06-.08.04-.1.14-.06.22l.07.12s.08.08.14.08c.03,0,.06,0,.08-.02.08-.04.1-.14.06-.22l-.07-.12ZM5.73,12.44c-.09,0-.16.07-.16.16v.14c0,.09.07.16.16.16s.16-.07.16-.16v-.14c0-.09-.07-.16-.16-.16ZM5.12,12.27c-.08-.04-.17-.02-.22.06l-.07.12c-.04.08-.02.17.06.22.02.01.05.02.08.02.06,0,.11-.03.14-.08l.07-.12c.04-.08.02-.17-.06-.22ZM4.45,11.76l-.12.07c-.08.04-.1.14-.06.22.04.08.14.1.22.06,0,0,0,0,0,0l.12-.07c.08-.04.1-.14.06-.22-.04-.08-.14-.1-.22-.06,0,0,0,0,0,0ZM4.5,11.21c0-.09-.07-.16-.16-.16h-.14c-.09,0-.16.07-.16.16s.07.16.16.16h.14c.09,0,.16-.07.16-.16ZM4.45,10.66s.05.02.08.02c.09,0,.16-.07.16-.16,0-.06-.03-.11-.08-.14l-.12-.07c-.08-.04-.17-.02-.22.06-.04.08-.02.17.06.22l.12.07ZM4.9,10.09c.04.08.14.11.21.07.08-.04.11-.14.07-.21,0,0,0,0,0-.01l-.07-.12c-.04-.08-.14-.1-.22-.06-.08.04-.1.14-.06.22l.07.12ZM12.59,13.04c.03.08,0,.17-.09.21,0,0,0,0,0,0-.02,0-.04,0-.06,0-.07,0-.13-.04-.15-.1l-.13-.36s0-.03,0-.05l-.07-2.32c0-.24-.08-.48-.2-.69-.33-.54-.93-1.52-1.1-1.75-.11-.14-.25-.26-.41-.34l.4,1.02s.02.08,0,.12c-.02.04-.05.07-.09.09l-.63.25c.03.09.06.19.08.29.07.27-.05.56-.3.7-.11.04-.35.06-.6-.31-.1-.14-.17-.26-.24-.37,0-.02-.02-.03-.03-.05-.14-.21-.26-.42-.38-.65l-.09-.16c-.3-.58-.5-.93-.69-.87-.02,0-.07.02-.12.12-.1.37-.05.75.12,1.09.12.27.2.56.26.85.07.31.13.65.18,1,0,.01,0,.03,0,.04,0,.06.02.12.03.17l.07.41c.11.66.79,1.21,1,1.36.09.06.16.14.21.24l.33.56c.04.08.02.17-.06.22-.02.02-.05.02-.08.02-.06,0-.11-.03-.14-.08l-.33-.56c-.03-.05-.07-.1-.12-.14-.3-.22-1-.8-1.13-1.57l-.03-.22h0c-.13.2-.35.32-.58.32-.14,0-.27-.06-.36-.17-.09-.11-.13-.25-.11-.38l.11-.68-1.02.4s-.04.01-.06.01c-.02,0-.04,0-.06-.01-.04-.02-.07-.05-.08-.09l-2.51-6.36c-.03-.08,0-.17.08-.2,0,0,0,0,0,0l4.65-1.84c.08-.03.17,0,.2.08,0,0,0,0,0,0l1.96,4.97c.33.06.62.25.81.52.23.29,1.03,1.63,1.12,1.78.15.25.24.54.25.84l.07,2.3.12.34ZM7.55,6.02l-1.19.47c-.08.03-.12.13-.09.21.03.06.08.1.15.1.02,0,.04,0,.06,0l1.18-.47c.08-.03.13-.11.11-.2s-.11-.13-.2-.11c0,0-.01,0-.02,0ZM6.68,5.74s.06.02.09,0c.03-.01.05-.04.06-.06.21-.77.7-1.29.13-1.58-.34-.17-.54.28-.59.63-.27-.21-.73-.41-.86-.05-.22.59.49.64,1.17,1.06h0ZM8.16,6.81c.08-.03.12-.12.09-.21h0c-.03-.08-.12-.12-.2-.09,0,0,0,0,0,0l-1.7.67c-.08.03-.12.13-.09.21.03.06.08.1.15.1.02,0,.04,0,.06,0l1.7-.67ZM7.94,10.77c-.04-.26-.09-.51-.13-.75l-.4.16-.14.86c-.01.09.04.17.13.18,0,0,.02,0,.02,0,.13,0,.25-.06.32-.17l.2-.29ZM9.76,9.25l-.4.16c.04.07.09.14.15.22.11.16.19.2.22.19.09-.1.12-.23.09-.36-.01-.07-.03-.14-.06-.21ZM11.64,4.77c.09,0,.16-.07.16-.16v-.08c0-.09-.07-.16-.16-.16s-.16.07-.16.16v.08c0,.09.07.16.16.16,0,0,0,0,0,0ZM12.22,5.01s.08-.02.11-.05l.06-.06c.06-.06.07-.16,0-.22-.06-.06-.16-.07-.22,0,0,0,0,0,0,0l-.06.06c-.06.06-.06.16,0,.22.03.03.07.05.11.05ZM12.54,5.26h-.08c-.09,0-.16.07-.16.16s.07.16.16.16h.08c.09,0,.16-.07.16-.16s-.07-.16-.16-.16ZM12.16,6.16s.07.05.11.05c.09,0,.16-.07.16-.16,0-.04-.02-.08-.05-.11l-.06-.06c-.06-.07-.16-.07-.22-.02s-.07.16-.02.22c0,0,.01.01.02.02l.06.06ZM11.65,6.47c.09,0,.16-.07.16-.16v-.08c0-.09-.07-.16-.16-.16s-.16.07-.16.16v.08c0,.09.07.16.16.16h0ZM10.96,5.88l-.06.06c-.06.06-.06.16,0,.22.06.06.16.06.22,0,0,0,0,0,0,0l.06-.06c.06-.06.06-.16,0-.22-.06-.06-.16-.06-.22,0,0,0,0,0,0,0ZM10.75,5.58h.08c.09,0,.16-.07.16-.16s-.07-.16-.16-.16h-.08c-.09,0-.16.07-.16.16s.07.16.16.16ZM10.96,4.96c.06.06.16.06.22,0,.06-.06.06-.16,0-.22,0,0,0,0,0,0l-.06-.06c-.06-.06-.16-.06-.22,0-.06.06-.06.16,0,.22l.06.06Z"/>
  </g>
</svg>